<?xml version="1.0" encoding="utf-8"?>
<!-- Generator: Adobe Illustrator 22.0.0, SVG Export Plug-In . SVG Version: 6.00 Build 0)  -->
<svg version="1.1" id="Capa_1" xmlns="http://www.w3.org/2000/svg" xmlns:xlink="http://www.w3.org/1999/xlink" x="0px" y="0px"
	 viewBox="0 0 40 40" style="enable-background:new 0 0 40 40;" xml:space="preserve">
<style type="text/css">
	.st0{fill:#C2C2CC;}
	.st1{fill:none;}
</style>
<title>flower_smallknob_ringpointer</title>
<g>
	<path class="st0" d="M22.6,3.2L21,0h-2l-1.6,3.2C9.2,4.5,3,11.5,3,20c0,9.4,7.6,17,17,17s17-7.6,17-17C37,11.5,30.8,4.5,22.6,3.2z
		 M20,33c-7.2,0-13-5.8-13-13c0-6.3,4.4-11.5,10.4-12.7L19,4h2l1.6,3.3C28.6,8.5,33,13.7,33,20C33,27.2,27.2,33,20,33z"/>
	<circle class="st1" cx="20" cy="20" r="20"/>
</g>
</svg>
