<?xml version="1.0" encoding="UTF-8" standalone="no"?><!DOCTYPE svg PUBLIC "-//W3C//DTD SVG 1.1//EN" "http://www.w3.org/Graphics/SVG/1.1/DTD/svg11.dtd"><svg width="100%" height="100%" viewBox="0 0 100 100" version="1.1" xmlns="http://www.w3.org/2000/svg" xmlns:xlink="http://www.w3.org/1999/xlink" xml:space="preserve" xmlns:serif="http://www.serif.com/" style="fill-rule:evenodd;clip-rule:evenodd;stroke-linejoin:round;stroke-miterlimit:1.41421;"><path d="M56.2,8.5l-4.4,-8.5l-3.6,0l-4.4,8.5c-20.2,2.9 -35.8,20.4 -35.8,41.5c0,23.2 18.8,42 42,42c23.2,0 42,-18.8 42,-42c0,-21.1 -15.6,-38.6 -35.8,-41.5Zm-6.2,77.5c-19.9,0 -36,-16.1 -36,-36c0,-19.9 16.1,-36 36,-36c19.9,0 36,16.1 36,36c0,19.9 -16.1,36 -36,36Z" style="fill:#c2c2cc;fill-rule:nonzero;"/></svg>